<?xml version="1.0" encoding="UTF-8"?>
<svg width="15px" height="15px" viewBox="0 0 15 15" version="1.1" xmlns="http://www.w3.org/2000/svg" xmlns:xlink="http://www.w3.org/1999/xlink">
    <!-- Generator: Sketch 43 (38999) - http://www.bohemiancoding.com/sketch -->
    <title>Shape</title>
    <desc>Created with Sketch.</desc>
    <defs></defs>
    <g id="Page-1" stroke="none" stroke-width="1" fill="none" fill-rule="evenodd">
        <g id="iPhone-7-Copy-20" transform="translate(-317.000000, -92.000000)" fill-rule="nonzero" fill="#B9B9B9">
            <g id="搜索-搜索" transform="translate(317.000000, 92.000000)">
                <path d="M10.4980167,3.13183333 C8.46408333,1.09696667 5.16568333,1.09696667 3.1308,3.13183333 C1.09591667,5.1667 1.09591667,8.46511667 3.1308,10.49905 C4.07343333,11.44195 5.3758,12.0251667 6.81441667,12.0251667 C8.25301667,12.0251667 9.55538333,11.4419333 10.4980167,10.49905 C11.4409333,9.55641667 12.02415,8.25403333 12.02415,6.81543333 C12.02415,5.37683333 11.4409167,4.07446667 10.4980333,3.13183333 L10.4980167,3.13183333 Z M1.99666667,11.6332 C0.763166667,10.4000167 0.000216666667,8.6962 0.000216666667,6.8142 C0.000216666667,3.05083333 3.05105,0 6.81441667,0 C10.5778,0 13.6286167,3.05083333 13.6286167,6.8142 C13.6286167,8.6962 12.86565,10.4000167 11.6321667,11.6331833 C10.3990833,12.86595 8.69578333,13.6284 6.81441667,13.6284 C4.93303333,13.6284 3.22975,12.86595 1.99666667,11.6331833 L1.99666667,11.6332 Z M14.7252833,14.7263167 C14.5569667,14.8949 14.3243167,14.9991833 14.0672833,14.9991833 C13.81025,14.9991833 13.5776,14.8949 13.4093,14.7263333 L12.09425,13.41035 C11.9259667,13.2420667 11.8218833,13.0096 11.8218833,12.7528167 C11.8218833,12.23925 12.2382167,11.82295 12.75175,11.82295 C13.0085167,11.82295 13.241,11.9270333 13.4092833,12.0953 L14.72525,13.41035 C14.8942833,13.5784667 14.9988833,13.8111833 14.9988833,14.0683333 C14.9988833,14.3254833 14.8942667,14.5582167 14.7252833,14.7262833 L14.7252833,14.7263167 Z" id="Shape"></path>
            </g>
        </g>
    </g>
</svg>